<svg xmlns="http://www.w3.org/2000/svg" id="a" viewBox="0 0 384 384"><path d="M0 0h384v384H0z" style="fill:#020817"/><path d="M56.68 171.88V79.66h27.41c6.23 0 11.64 1.2 16.23 3.6 4.59 2.4 8.15 5.75 10.67 10.04 2.53 4.29 3.79 9.35 3.79 15.16v34.49c0 5.81-1.26 10.89-3.79 15.22-2.53 4.34-6.09 7.71-10.67 10.11-4.59 2.4-10 3.6-16.23 3.6H56.68Zm15.79-14.15h11.62c4.55 0 8.17-1.33 10.86-3.98 2.69-2.65 4.04-6.25 4.04-10.8v-34.49c0-4.46-1.35-8.02-4.04-10.68-2.7-2.65-6.32-3.98-10.86-3.98H72.47v63.92ZM128.12 171.88v-13.9h114.3v-27.04H132.54v-13.39h109.88v-24h-114.3v-13.9h129.84v92.22H128.12ZM289.99 171.88l-23.24-92.22h16.3l14.02 60.13c.76 2.95 1.45 6.13 2.08 9.54.63 3.41 1.12 6.13 1.45 8.15.34-2.02.82-4.74 1.45-8.15s1.33-6.63 2.08-9.67l13.52-60.01h16.04l-23.24 92.22h-20.47ZM56.3 303.08v-92.22h19.33l25.64 74.53c-.25-2.69-.51-5.88-.76-9.54-.25-3.66-.49-7.39-.69-11.18-.21-3.79-.32-7.16-.32-10.11v-43.71h14.4v92.22H94.57l-25.39-74.53c.17 2.44.38 5.39.63 8.84s.46 6.99.63 10.61c.17 3.62.25 6.95.25 9.98v45.1h-14.4ZM155.85 304.34c-8.84 0-15.85-2.53-21.03-7.58s-7.77-12.04-7.77-20.97v-37.64c0-8.93 2.59-15.92 7.77-20.97 5.18-5.05 12.19-7.58 21.03-7.58s15.85 2.53 21.03 7.58c5.18 5.05 7.77 12 7.77 20.84v37.77c0 8.93-2.59 15.92-7.77 20.97-5.18 5.05-12.19 7.58-21.03 7.58Zm0-13.9c4.3 0 7.54-1.16 9.73-3.47 2.19-2.32 3.28-5.62 3.28-9.92v-40.17c0-4.29-1.1-7.6-3.28-9.92-2.19-2.32-5.43-3.47-9.73-3.47s-7.54 1.16-9.73 3.47c-2.19 2.32-3.28 5.62-3.28 9.92v40.17c0 4.29 1.09 7.6 3.28 9.92 2.19 2.32 5.43 3.47 9.73 3.47ZM217.68 303.08v-77.94h-24.13v-14.28h64.17v14.28h-24.13v77.94h-15.92ZM269.6 303.08v-92.22h55.33v13.9h-39.79v24h35.37v13.39h-35.37v27.03h39.79v13.9H269.6Z" style="fill:#3b82f6"/></svg>